<svg width="24" height="26" viewBox="0 0 24 26" fill="none" xmlns="http://www.w3.org/2000/svg">
<rect width="24" height="26" rx="3" fill="white"/>
<path d="M12 4C12 4 6.4326 9.04333 3.3213 11.7747C3.2223 11.8652 3.14253 11.9765 3.08718 12.1015C3.03183 12.2265 3.00213 12.3622 3 12.5C3 12.7505 3.09482 12.9907 3.2636 13.1678C3.43239 13.3449 3.66131 13.4444 3.9 13.4444H5.7V20.0556C5.7 20.306 5.79482 20.5463 5.9636 20.7234C6.13239 20.9005 6.3613 21 6.6 21H9.3C9.53869 21 9.76761 20.9005 9.9364 20.7234C10.1052 20.5463 10.2 20.306 10.2 20.0556V16.2778H13.8V20.0556C13.8 20.306 13.8948 20.5463 14.0636 20.7234C14.2324 20.9005 14.4613 21 14.7 21H17.4C17.6387 21 17.8676 20.9005 18.0364 20.7234C18.2052 20.5463 18.3 20.306 18.3 20.0556V13.4444H20.1C20.3387 13.4444 20.5676 13.3449 20.7364 13.1678C20.9052 12.9907 21 12.7505 21 12.5C20.9987 12.3596 20.9671 12.2213 20.9073 12.0956C20.8476 11.97 20.7614 11.8602 20.6553 11.7747C17.5656 9.04333 12 4 12 4Z" fill="#1E1E1E"/>
</svg>
