<svg width="27" height="26" viewBox="0 0 27 26" fill="none" xmlns="http://www.w3.org/2000/svg">
<path d="M12 19.2857H14.6667V11.5714H12V19.2857ZM13.3333 9C13.7111 9 14.028 8.87657 14.284 8.62971C14.54 8.38286 14.6676 8.07771 14.6667 7.71429C14.6667 7.35 14.5387 7.04486 14.2827 6.79886C14.0267 6.55286 13.7102 6.42943 13.3333 6.42857C12.9556 6.42857 12.6391 6.552 12.384 6.79886C12.1289 7.04571 12.0009 7.35086 12 7.71429C12 8.07857 12.128 8.38414 12.384 8.631C12.64 8.87786 12.9564 9.00086 13.3333 9ZM13.3333 25.7143C11.4889 25.7143 9.75556 25.3766 8.13334 24.7011C6.51111 24.0257 5.1 23.1099 3.9 21.9536C2.7 20.7964 1.75022 19.4357 1.05067 17.8714C0.351111 16.3071 0.000888889 14.6357 0 12.8571C0 11.0786 0.350222 9.40714 1.05067 7.84286C1.75111 6.27857 2.70089 4.91786 3.9 3.76071C5.1 2.60357 6.51111 1.68771 8.13334 1.01314C9.75556 0.338572 11.4889 0.000857143 13.3333 0C15.1778 0 16.9111 0.337714 18.5333 1.01314C20.1556 1.68857 21.5667 2.60443 22.7667 3.76071C23.9667 4.91786 24.9169 6.27857 25.6173 7.84286C26.3178 9.40714 26.6676 11.0786 26.6667 12.8571C26.6667 14.6357 26.3164 16.3071 25.616 17.8714C24.9156 19.4357 23.9658 20.7964 22.7667 21.9536C21.5667 23.1107 20.1556 24.027 18.5333 24.7024C16.9111 25.3779 15.1778 25.7151 13.3333 25.7143Z" fill="#1E1E1E"/>
</svg>
