<svg width="34" height="34" viewBox="0 0 34 34" fill="none" xmlns="http://www.w3.org/2000/svg">
<g id="&#240;&#159;&#166;&#134; icon &#34;cog&#34;">
<path id="Vector" d="M14.5649 0L12.4901 4.93795C12.0752 5.06244 11.7017 5.26992 11.3282 5.4774L6.39029 3.40262L3.40262 6.39029L5.4774 11.3282C5.26992 11.7432 5.10394 12.0752 4.93795 12.4901L0 14.5649V18.7144L4.93795 20.7892C5.10394 21.2042 5.26992 21.5361 5.4774 21.9511L3.40262 26.889L6.39029 29.8767L11.3282 27.8019C11.7017 27.9679 12.0752 28.1754 12.4901 28.3414L14.5649 33.2793H18.7144L20.7892 28.3414C21.1627 28.1754 21.5776 28.0094 21.9511 27.8019L26.889 29.8767L29.8767 26.889L27.8019 21.9511C27.9679 21.5776 28.1754 21.1627 28.3414 20.7892L33.2793 18.7144V14.5649L28.3414 12.4901C28.2169 12.1167 28.0094 11.7017 27.8019 11.3282L29.8767 6.39029L26.889 3.40262L21.9511 5.4774C21.5776 5.31141 21.1627 5.10394 20.7892 4.93795L18.7144 0L14.5649 0ZM16.6397 10.3739C20.0838 10.3739 22.864 13.154 22.864 16.5982C22.864 20.0423 20.0838 22.8225 16.6397 22.8225C13.1955 22.8225 10.4153 20.0423 10.4153 16.5982C10.4153 13.154 13.1955 10.3739 16.6397 10.3739Z" fill="#1E1E1E"/>
</g>
</svg>
